<?xml version="1.0" encoding="utf-8"?>
<!-- Generator: Adobe Illustrator 25.0.0, SVG Export Plug-In . SVG Version: 6.00 Build 0)  -->
<svg version="1.1" id="Calque_1" xmlns="http://www.w3.org/2000/svg" xmlns:xlink="http://www.w3.org/1999/xlink" x="0px" y="0px"
	 viewBox="0 0 100 100" style="enable-background:new 0 0 100 100;" xml:space="preserve">
<style type="text/css">
	.st0{fill:#FFD600;}
	.st1{opacity:0.3;fill:#FFFFFF;enable-background:new    ;}
</style>
<path class="st0" d="M67.8,0H17.8c-2.8,0-5,2.2-5,5v90c0,2.8,2.2,5,5,5h65.3c2.8,0,5-2.2,5-5V20.4L67.8,0z"/>
<path class="st1" d="M67.8,15.4c0,2.8,2.2,5,5,5h15.4L67.8,0V15.4z"/>
<path d="M67.2,81.7H32.6c-3.8,0-6.9-3.1-6.9-6.9V40.2c0-3.8,3.1-6.9,6.9-6.9h34.6c3.8,0,6.9,3.1,6.9,6.9v34.6
	C74.1,78.6,71,81.7,67.2,81.7z M32.6,35.6c-2.5,0-4.6,2.1-4.6,4.6v34.6c0,2.5,2.1,4.6,4.6,4.6h34.6c2.5,0,4.6-2.1,4.6-4.6V40.2
	c0-2.5-2.1-4.6-4.6-4.6C67.2,35.6,32.6,35.6,32.6,35.6z"/>
<g>
	<path d="M53.2,59.1h2.1v10.8c0,4.3-2.1,5.6-4.9,5.6c-0.8,0-1.7-0.2-2.2-0.4l0.3-1.7c0.4,0.2,1.1,0.3,1.8,0.3c1.9,0,3-0.8,3-4V59.1z
		"/>
	<path d="M58.5,72.7c0.9,0.6,2.3,1.1,3.7,1.1c2.1,0,3.4-1.1,3.4-2.8c0-1.5-0.9-2.4-3-3.2c-2.6-0.9-4.3-2.3-4.3-4.6
		c0-2.5,2.1-4.4,5.2-4.4c1.7,0,2.9,0.4,3.6,0.8l-0.6,1.7c-0.5-0.3-1.6-0.8-3.1-0.8c-2.2,0-3,1.3-3,2.4c0,1.5,1,2.3,3.2,3.1
		c2.7,1.1,4.1,2.4,4.1,4.8c0,2.5-1.8,4.7-5.7,4.7c-1.6,0-3.3-0.5-4.1-1L58.5,72.7z"/>
</g>
</svg>
